<svg width="50" height="50" viewBox="0 0 50 50" fill="none" xmlns="http://www.w3.org/2000/svg">
<path fill-rule="evenodd" clip-rule="evenodd" d="M37.5303 30.933C36.8147 30.5609 33.3065 28.7678 32.6534 28.5181C32.0001 28.2709 31.5247 28.1485 31.0469 28.8927C30.5714 29.6319 29.2051 31.3052 28.7898 31.7995C28.372 32.2964 27.9566 32.3564 27.2432 31.9868C26.5301 31.6123 24.2298 30.8306 21.5044 28.3033C19.384 26.3355 17.9505 23.9057 17.5352 23.1616C17.1197 22.4198 17.4895 22.0178 17.8473 21.6482C18.169 21.316 18.5604 20.7816 18.9183 20.3495C19.276 19.9151 19.3937 19.6055 19.6314 19.1085C19.8715 18.614 19.7514 18.182 19.5713 17.81C19.3937 17.4379 17.9673 13.7843 17.3719 12.2985C16.7931 10.8526 16.2048 11.0499 15.7678 11.0249C15.3499 11.005 14.8745 11 14.3991 11C13.9236 11 13.1504 11.1847 12.4973 11.9289C11.8417 12.6706 10 14.4661 10 18.1196C10 21.7705 12.555 25.2992 12.9127 25.7962C13.2705 26.2906 17.9433 33.7874 25.1015 37.0014C26.8062 37.7654 28.1341 38.2224 29.1691 38.5622C30.8788 39.1289 32.4349 39.0491 33.6643 38.8567C35.033 38.6445 37.8857 37.0611 38.481 35.3281C39.0742 33.595 39.0742 32.1092 38.8965 31.7995C38.7189 31.4899 38.2435 31.3052 37.5278 30.933H37.5303Z" fill="#E0074C"/>
<path d="M36.7103 22.2051C36.9207 21.9965 37.0274 21.7341 37.0303 21.418L37.014 20.4815C37.0086 20.1652 36.8926 19.8948 36.6663 19.6705C36.4357 19.4418 36.1652 19.329 35.8546 19.3321L32.1579 19.2628L36.5151 14.9432C36.7296 14.7305 36.8239 14.4783 36.7978 14.1866C36.7718 13.8949 36.6456 13.6369 36.4193 13.4125L35.5993 12.5996C35.373 12.3753 35.1127 12.2501 34.8185 12.2243C34.5242 12.1985 34.2699 12.2919 34.0553 12.5047L29.6982 16.8242L29.6282 13.1594C29.6314 12.8515 29.5175 12.5833 29.2869 12.3547C29.0563 12.1261 28.7858 12.0133 28.4753 12.0163L27.5306 12.0002C27.2115 11.9948 26.9447 12.0984 26.7302 12.3111C26.5115 12.5279 26.4049 12.7945 26.4104 13.1108L26.5514 21.2394C26.5483 21.5389 26.664 21.805 26.8989 22.0379C27.1296 22.2665 27.4001 22.3835 27.7108 22.3887L35.9101 22.5285C36.229 22.5256 36.4958 22.4179 36.7103 22.2051Z" fill="#E0074C"/>
</svg>
