<svg width="50" height="50" viewBox="0 0 50 50" fill="none" xmlns="http://www.w3.org/2000/svg">
<path fill-rule="evenodd" clip-rule="evenodd" d="M44.0825 14.6251C44.3592 13.6891 44.0825 13 42.7575 13H38.3826C37.2693 13 36.756 13.5949 36.4777 14.2514C36.4777 14.2514 34.2527 19.7303 31.1011 23.2891C30.0811 24.3211 29.6178 24.6486 29.0612 24.6486C28.7828 24.6486 28.3645 24.3211 28.3645 23.3834V14.6251C28.3645 13.5006 28.0578 13 27.1312 13H20.2513C19.5564 13 19.138 13.5211 19.138 14.0166C19.138 15.0811 20.7147 15.328 20.8763 18.3246V24.8354C20.8763 26.2634 20.6213 26.5223 20.0647 26.5223C18.5814 26.5223 14.9731 21.0177 12.8315 14.7194C12.4165 13.4937 11.9965 13 10.8782 13H6.49997C5.24999 13 5 13.5949 5 14.2514C5 15.4206 6.4833 21.2286 11.9082 28.9103C15.5248 34.156 20.6163 37 25.2546 37C28.0362 37 28.3795 36.3691 28.3795 35.2806V31.3154C28.3795 30.052 28.6428 29.8 29.5245 29.8C30.1745 29.8 31.2861 30.1291 33.8827 32.6577C36.8493 35.656 37.3377 37 39.0076 37H43.3825C44.6325 37 45.2592 36.3691 44.8992 35.1211C44.5025 33.88 43.0859 32.0783 41.2076 29.9406C40.1876 28.7234 38.6576 27.412 38.1926 26.7554C37.5443 25.9137 37.7293 25.5383 38.1926 24.7891C38.1926 24.7891 43.5259 17.2017 44.0808 14.6251H44.0825Z" fill="#132766"/>
</svg>
