<svg width="50" height="50" viewBox="0 0 50 50" fill="none" xmlns="http://www.w3.org/2000/svg">
<path d="M38.6068 16.3998C33.82 8.99976 24.047 6.79974 16.4678 11.3998C9.08818 15.9998 6.69478 25.9999 11.4816 33.3999L11.8805 33.9999L10.2849 40L16.2684 38.4L16.8667 38.8C19.4596 40.2 22.2519 41 25.0442 41C28.036 41 31.0277 40.2 33.6206 38.6C41.0002 33.7999 43.1942 23.9999 38.6068 16.3998ZM34.4184 31.7999C33.6206 32.9999 32.6233 33.7999 31.2272 33.9999C30.4294 33.9999 29.4321 34.3999 25.4431 32.7999C22.0525 31.1999 19.2602 28.5999 17.2656 25.5999C16.0689 24.1999 15.4706 22.3999 15.2711 20.5998C15.2711 18.9998 15.8695 17.5998 16.8667 16.5998C17.2656 16.1998 17.6645 15.9998 18.0635 15.9998H19.0607C19.4596 15.9998 19.8585 15.9998 20.058 16.7998C20.4569 17.7998 21.4541 20.1998 21.4541 20.3998C21.6536 20.5998 21.6536 20.9998 21.4541 21.1999C21.6536 21.5999 21.4541 21.9999 21.2547 22.1999C21.0552 22.3999 20.8558 22.7999 20.6563 22.9999C20.2574 23.1999 20.058 23.5999 20.2574 23.9999C21.0552 25.1999 22.0525 26.3999 23.0497 27.3999C24.2464 28.3999 25.4431 29.1999 26.8393 29.7999C27.2382 29.9999 27.6371 29.9999 27.8365 29.5999C28.036 29.1999 29.0332 28.1999 29.4321 27.7999C29.831 27.3999 30.0305 27.3999 30.4294 27.5999L33.6206 29.1999C34.0195 29.3999 34.4184 29.5999 34.6178 29.7999C34.8173 30.3999 34.8173 31.1999 34.4184 31.7999Z" fill="#132766"/>
</svg>
