<svg width="1920" height="5901" viewBox="0 0 1920 5901" fill="none" xmlns="http://www.w3.org/2000/svg">
<path d="M486.554 47.7628C574.175 -15.8982 692.824 -15.8983 780.446 47.7628L2060.08 977.469C2147.7 1041.13 2184.36 1153.97 2150.89 1256.98L1662.12 2761.27C1628.65 2864.28 1532.66 2934.02 1424.35 2934.02H-157.355C-265.661 2934.02 -361.651 2864.28 -395.119 2761.27L-883.894 1256.98C-917.363 1153.97 -880.699 1041.13 -793.077 977.469L486.554 47.7628Z" fill="#BDE5FF"/>
<rect x="-726" y="1743.18" width="3742" height="2221.21" transform="rotate(-11.9558 -726 1743.18)" fill="#D6EEFF"/>
<rect x="-331.77" y="3320.31" width="2544" height="1528" transform="rotate(-1.51619 -331.77 3320.31)" fill="#9AD5FC"/>
<rect x="-505.218" y="4731" width="3742" height="2221.21" transform="rotate(1.57824 -505.218 4731)" fill="#D6EEFF"/>
<rect x="-770.616" y="5942.61" width="3742" height="2221.21" transform="rotate(-16.0473 -770.616 5942.61)" fill="#F9FBFC"/>
</svg>
