<?xml version="1.0" ?>
<!-- Uploaded to: SVG Repo, www.svgrepo.com, Generator: SVG Repo Mixer Tools -->
<svg width="800px" height="800px" viewBox="0 0 64 64" id="svg5" version="1.1" xml:space="preserve" xmlns="http://www.w3.org/2000/svg" xmlns:svg="http://www.w3.org/2000/svg">
<defs id="defs2"/>
<g id="layer1" transform="translate(-192,-384)">
<path d="m 239.07227,412.00391 a 1,1 0 0 0 -0.72657,0.24023 l -4.61914,4 a 1,1 0 0 0 -0.10156,1.41016 1,1 0 0 0 1.41016,0.10156 l 4.61914,-4 a 1,1 0 0 0 0.10156,-1.41016 1,1 0 0 0 -0.68359,-0.34179 z" id="path37811" style="color:#000000;fill:#000000;fill-rule:evenodd;stroke-linecap:round;stroke-linejoin:round;stroke-miterlimit:4.1;-inkscape-stroke:none"/>
<path d="m 219.38086,412.00391 a 1,1 0 0 0 -0.72656,0.24023 l -4.61914,4 a 1,1 0 0 0 -0.0996,1.41016 1,1 0 0 0 1.41015,0.10156 l 4.61914,-4 a 1,1 0 0 0 0.0996,-1.41016 1,1 0 0 0 -0.68359,-0.34179 z" id="path37809" style="color:#000000;fill:#000000;fill-rule:evenodd;stroke-linecap:round;stroke-linejoin:round;stroke-miterlimit:4.1;-inkscape-stroke:none"/>
<path d="m 214.07227,412.00391 a 1,1 0 0 0 -0.72657,0.24023 l -4.61914,4 a 1,1 0 0 0 -0.10156,1.41016 1,1 0 0 0 1.41016,0.10156 l 4.61914,-4 a 1,1 0 0 0 0.10156,-1.41016 1,1 0 0 0 -0.68359,-0.34179 z" id="path37807" style="color:#000000;fill:#000000;fill-rule:evenodd;stroke-linecap:round;stroke-linejoin:round;stroke-miterlimit:4.1;-inkscape-stroke:none"/>
<path d="m 233.76172,412.00195 a 1,1 0 0 0 -0.72656,0.24219 l -4.61719,4 a 1,1 0 0 0 -0.10156,1.41016 1,1 0 0 0 1.41015,0.10156 l 4.61914,-4 a 1,1 0 0 0 0.10157,-1.41016 1,1 0 0 0 -0.68555,-0.34375 z" id="path37805" style="color:#000000;fill:#000000;fill-rule:evenodd;stroke-linecap:round;stroke-linejoin:round;stroke-miterlimit:4.1;-inkscape-stroke:none"/>
<path d="m 223.97852,405 c -6.41913,-0.002 -11.06532,0.93869 -19.18946,2.68555 A 1.0001,1.0001 0 0 0 204,408.66406 V 425 a 1.0001,1.0001 0 0 0 1,1 h 12.09961 a 1.0001,1.0001 0 0 0 0.70703,-0.29297 L 224,419.51562 l 6.19336,6.19141 A 1.0001,1.0001 0 0 0 230.90039,426 H 243 a 1.0001,1.0001 0 0 0 1,-1 v -16.33398 a 1.0001,1.0001 0 0 0 -0.79297,-0.97852 c -8.0815,-1.71705 -12.71656,-2.68445 -19.22851,-2.6875 z m 0,2 c 6.06701,0.003 10.5291,0.9014 18.02148,2.49023 V 424 h -10.68555 l -6.15625,-6.1582 c -0.63079,-0.63079 -1.68561,-0.63079 -2.3164,0 L 216.68555,424 H 206 v -14.51172 c 7.52936,-1.61315 11.99709,-2.49017 17.97852,-2.48828 z" id="path37803" style="color:#000000;fill:#000000;fill-rule:evenodd;stroke-linecap:round;stroke-linejoin:round;stroke-miterlimit:4.1;-inkscape-stroke:none"/>
<path d="m 223.98047,401 c -7.23181,-0.003 -12.52175,1.03232 -21.63672,3.07227 C 200.97957,404.37821 200.00039,405.60193 200,407 v 2 h -1 c -1.64501,0 -3,1.35499 -3,3 v 8 c 0,1.64501 1.35499,3 3,3 h 1 v 4 c 1.6e-4,1.64489 1.35511,2.99984 3,3 h 16.15039 a 1.0001,1.0001 0 0 0 0.70703,-0.29297 L 224,425.56641 l 4.14258,4.14062 A 1.0001,1.0001 0 0 0 228.84961,430 H 245 c 1.64489,-1.6e-4 2.99984,-1.35511 3,-3 v -4 h 1 c 1.64501,0 3,-1.35499 3,-3 v -8 c 0,-1.64501 -1.35499,-3 -3,-3 h -1 v -2 c -2.4e-4,-1.4026 -0.98564,-2.62824 -2.35547,-2.92969 -9.05552,-1.99676 -14.32379,-3.06719 -21.66406,-3.07031 z m 0,2 c 7.14771,0.003 12.19099,1.02935 21.23437,3.02344 0.46409,0.10213 0.78508,0.50136 0.78516,0.97656 v 3 12 5 c -6e-5,0.56415 -0.43585,0.99994 -1,1 h -15.73633 l -4.13086,-4.13281 c -0.61676,-0.61676 -1.64886,-0.61676 -2.26562,0 L 218.73633,428 H 203 c -0.56415,-6e-5 -0.99994,-0.43585 -1,-1 v -5 -12 -3 c 1.3e-4,-0.47359 0.31913,-0.87097 0.78125,-0.97461 9.09533,-2.03555 14.15727,-3.02835 21.19922,-3.02539 z M 199,411 h 1 v 10 h -1 c -0.56413,0 -1,-0.43587 -1,-1 v -8 c 0,-0.56413 0.43587,-1 1,-1 z m 49,0 h 1 c 0.56413,0 1,0.43587 1,1 v 8 c 0,0.56413 -0.43587,1 -1,1 h -1 z" id="rect1115" style="color:#000000;fill:#000000;fill-rule:evenodd;stroke-linecap:round;stroke-linejoin:round;stroke-miterlimit:4.1;-inkscape-stroke:none"/>
</g>
</svg>