<?xml version="1.0" encoding="utf-8"?>
<!-- Uploaded to: SVG Repo, www.svgrepo.com, Generator: SVG Repo Mixer Tools -->
<!DOCTYPE svg PUBLIC "-//W3C//DTD SVG 1.1//EN" "http://www.w3.org/Graphics/SVG/1.1/DTD/svg11.dtd">
<svg fill="#000000" width="800px" height="800px" viewBox="0 0 1000 1000" version="1.1" xmlns="http://www.w3.org/2000/svg" xmlns:xlink="http://www.w3.org/1999/xlink"  enable-background="new 0 0 1000 1000" xml:space="preserve">

<g>
<g transform="translate(0.000000,512.000000) scale(0.100000,-0.100000)">
<path d="M4668.6,5007.7c-316.4-44.1-625-174.5-812.9-343.2c-195.6-174.5-377.7-456.3-469.7-720.9c-42.2-124.6-53.7-187.9-53.7-335.5c0-166.8,3.8-193.7,61.3-314.4c32.6-70.9,61.4-134.2,61.4-136.1c0-3.8-82.4-34.5-182.1-67.1c-314.4-105.5-473.6-241.6-724.7-623.1c-147.6-226.2-419.9-782.3-580.9-1188.7c-243.5-619.3-582.9-1708.3-613.5-1974.8c-19.2-159.1,0-172.6,554.1-354.7l473.6-157.2l59.4,36.4c51.8,28.8,88.2,97.8,262.7,500.4c109.3,255,203.2,462.1,207.1,458.2c3.8-1.9-15.3-617.4-40.3-1365.1c-55.6-1604.8-57.5-1754.3-19.2-1971c38.3-220.5,88.2-349,182.1-462.1c69-84.3,76.7-101.6,76.7-201.3c0-180.2,44.1-289.5,153.4-393c141.9-134.2,243.5-172.6,441-174.5c147.6,0,176.4,5.7,293.3,63.3c205.2,101.6,320.2,289.5,320.2,527.2c0,86.3,7.7,103.5,84.4,186c207.1,220.5,299.1,561.8,327.9,1207.9c21.1,500.4,99.7,1027.7,164.9,1104.3c103.5,124.6,176.4-251.2,226.2-1171.4c32.6-584.8,107.4-855.1,308.7-1121.6c40.3-51.8,55.6-105.4,72.9-233.9c32.6-256.9,101.6-356.6,329.8-477.4c74.8-40.3,113.1-46,287.6-46c182.1,0,210.9,5.8,299.1,51.8c113.1,59.4,228.2,180.2,276.1,291.4c19.2,42.2,40.3,138,47.9,212.8c11.5,116.9,23,143.8,80.5,209c136.1,149.6,207.1,379.6,228.1,740.1c9.6,164.9-74.8,2352.5-115,2989c-5.7,76.7-1.9,134.2,7.7,124.6c7.7-9.6,111.2-220.5,230.1-467.8c118.9-247.3,233.9-469.7,255-494.7c23-24.9,61.4-42.2,95.9-42.2c30.7,0,249.2,51.8,485.1,115c235.8,63.3,462.1,113.1,504.3,111.2c88.2-1.9,136.1,28.8,136.1,88.2c0,130.4-320.2,1202.1-511.9,1716c-337.4,908.8-649.9,1505.1-966.3,1848.3c-161.1,178.3-276.1,249.2-521.5,331.7c-113.1,38.3-203.2,74.8-199.4,80.5c170.6,320.2,168.7,617.4-11.5,991.2c-207.1,427.6-544.5,709.4-972.1,814.9C5282.1,5015.4,4858.4,5034.6,4668.6,5007.7z M5420.2,4674.1c178.3-49.9,373.9-149.6,487-253.1c101.6-90.1,212.8-226.2,212.8-258.8c0-7.7-70.9,19.2-157.2,59.4c-88.2,42.2-226.2,93.9-308.7,115c-533,134.2-1330.6,74.8-1735.2-132.3c-44.1-23-80.5-34.5-80.5-24.9c0,36.4,122.7,176.4,214.7,249.2c168.7,128.5,360.4,210.9,609.7,264.6C4827.8,4727.8,5263,4716.3,5420.2,4674.1z M5305.2,4085.5c437.1-59.4,870.4-245.4,958.6-408.4c32.6-57.5,32.6-74.8,11.5-149.6c-84.3-287.6-393-534.9-818.7-651.9c-128.5-36.4-199.4-42.2-487-42.2c-287.6,0-358.5,5.8-488.9,42.2c-419.9,117-724.7,345.1-807.2,607.8c-30.7,97.8-30.7,111.2-3.8,170.6c88.2,182.1,446.7,354.7,887.7,423.7C4751.1,4108.5,5113.4,4112.4,5305.2,4085.5z M4062.8,2701.2c95.9-46,203.2-94,235.8-107.4c47.9-15.3,59.4-28.8,47.9-53.7c-55.6-138-163-500.4-249.2-839.8c-251.2-981.7-479.3-2408.1-613.5-3825c-15.3-174.5-34.5-362.4-40.3-416.1l-9.6-101.6h-153.4c-107.4,0-151.5,7.7-151.5,24.9c0,11.5,26.8,728.6,59.4,1591.3l61.3,1570.3l63.3,105.4c306.8,510,398.8,1378.5,226.2,2155c-9.6,44.1-1.9,49.9,82.4,76.7l92,28.8l86.3-61.4C3848,2814.4,3965,2749.2,4062.8,2701.2z M6399.9,2802.8c-59.4-270.3-74.8-442.9-76.7-795.7c0-327.9,5.8-412.2,42.2-579c55.6-256.9,138-490.8,256.9-724.7l95.9-191.7l53.7-1370.9c30.7-753.5,59.4-1462.9,63.3-1576l11.5-207.1h-186h-186l-53.7,542.6C6260-450.8,6010.7,1025.5,5727,2014.8c-55.6,195.6-120.8,400.7-141.9,456.3l-38.3,99.7l107.4,30.7c138,40.3,373.9,159.1,485.1,243.5l84.4,67.1l93.9-30.7C6401.8,2854.6,6409.5,2846.9,6399.9,2802.8z M6954,2570.9c379.6-402.6,839.8-1466.7,1244.3-2879.8c47.9-166.8,92-331.7,99.7-368.1c11.5-61.4,9.6-65.2-63.3-84.4c-233.9-61.3-533-134.2-536.8-128.5c-1.9,1.9-155.3,322.1-337.4,713.2c-184.1,389.2-395,828.3-471.7,975.9c-224.3,442.9-283.8,736.2-264.6,1294.2c11.5,274.2,40.3,506.2,80.5,636.5c11.5,34.5,15.3,34.5,70.9,1.9C6806.4,2712.7,6886.9,2639.9,6954,2570.9z M3242.2,2645.6c72.9-362.4,95.9-791.8,61.4-1081.3c-30.7-247.3-128.5-536.9-270.3-801.4c-61.4-117-264.6-536.8-450.6-929.9c-184.1-395-339.4-720.9-341.3-722.8c-3.8-5.8-573.3,201.3-582.9,210.9c-1.9,1.9,28.8,132.3,70.9,291.4c350.9,1344,855.1,2532.8,1252,2956.5c90.1,95.9,193.6,176.4,228.2,176.4C3217.2,2745.3,3230.6,2699.3,3242.2,2645.6z M5368.4,2246.8c291.4-910.7,546.4-2327.6,761.2-4242.9c36.4-335.5,67.1-617.4,67.1-627c0-11.5-138-19.2-345.1-19.2h-345.1v53.7c0,84.4-72.8,548.3-107.4,690.2c-44.1,176.4-124.6,347-197.5,414.1c-74.8,70.9-247.3,92-343.2,42.2c-74.8-38.3-163-186-214.7-358.5c-40.3-134.2-105.4-498.5-124.6-711.3l-13.4-130.4h-362.4h-362.4v92c0,49.8,17.3,272.3,38.3,492.7c170.6,1773.5,442.9,3295.8,761.2,4252.5l105.4,320.2l299.1-3.8l299.1-5.7L5368.4,2246.8z M4444.3-3096.6c-32.6-364.3-92-588.6-184.1-699.8l-59.4-72.9h-442.9h-441l-63.3,63.3c-40.3,40.3-74.8,103.5-93.9,168.7c-32.6,115-69,408.4-69,579v109.3h682.6h682.6L4444.3-3096.6z M6842.8-3211.7c-9.6-306.8-55.6-483.2-149.5-590.5l-59.5-67.1h-427.5h-427.6l-59.4,67.1c-124.6,141.9-201.3,375.8-224.3,680.6l-13.4,172.6h686.4h686.4L6842.8-3211.7z M4058.9-4195.2c7.7-11.5-5.8-47.9-26.8-82.4c-134.2-216.7-567.5-184.1-625,49.8l-13.4,51.8h325.9C3920.9-4176.1,4051.3-4183.7,4058.9-4195.2z M6528.4-4212.5c-26.8-103.5-191.7-212.8-324-212.8c-128.5,0-314.4,120.8-314.4,205.2v44.1h324C6522.6-4176.1,6538-4178,6528.4-4212.5z"/>
</g>
</g>
</svg>