<?xml version="1.0" encoding="iso-8859-1"?>
<!-- Uploaded to: SVG Repo, www.svgrepo.com, Generator: SVG Repo Mixer Tools -->
<svg fill="#000000" height="800px" width="800px" version="1.1" id="Layer_1" xmlns="http://www.w3.org/2000/svg" xmlns:xlink="http://www.w3.org/1999/xlink" 
	 viewBox="0 0 512 512" xml:space="preserve">
<g>
	<g>
		<path d="M474.469,433.745l11.805-11.805c19.526-19.527,19.525-51.298,0-70.825c-19.572-19.572-51.252-19.575-70.825,0
			l-11.802,11.803L279.608,238.881l48.369-48.369l11.805,11.805c6.791,6.792,17.815,6.795,24.611,0l66.143-66.143l-17.423,74.822
			c-7.32,31.44,16.54,61.468,48.778,61.468c32.719,0,56.628-30.844,48.517-62.53L477.727,82.31c0.149-4.64-1.529-9.327-5.07-12.869
			L425.44,22.225c-6.797-6.797-17.817-6.798-24.611,0L292.567,130.488c-6.797,6.795-6.797,17.815,0,24.611l11.805,11.805
			l-48.369,48.369l-48.369-48.369l11.805-11.805c6.797-6.795,6.797-17.815,0-24.611L111.173,22.225
			c-6.795-6.797-17.815-6.797-24.611,0L39.345,69.441c-3.541,3.541-5.22,8.229-5.07,12.869L1.593,209.935
			c-8.12,31.72,15.838,62.529,48.517,62.529c32.271,0,56.089-30.061,48.778-61.468l-17.423-74.823l66.144,66.143
			c6.792,6.792,17.817,6.795,24.612,0l11.805-11.805l48.369,48.369L108.355,362.919L96.55,351.114
			c-19.572-19.573-51.252-19.575-70.824,0c-19.527,19.526-19.527,51.298,0,70.825l11.804,11.804l-32.63,32.63
			c-6.519,6.519-6.519,17.089,0,23.608c3.26,3.26,7.532,4.89,11.804,4.89s8.545-1.629,11.804-4.89l32.63-32.63l11.805,11.805
			c19.525,19.526,51.298,19.527,70.824,0c19.574-19.573,19.575-51.252,0-70.824l-11.805-11.805l124.038-124.038l124.038,124.038
			l-11.805,11.805c-19.573,19.573-19.575,51.252,0,70.825c19.525,19.526,51.298,19.527,70.824,0l11.805-11.805l32.63,32.63
			c3.26,3.26,7.532,4.89,11.803,4.89c4.271,0,8.545-1.629,11.804-4.89c6.519-6.519,6.519-17.089,0-23.608L474.469,433.745z
			 M445.632,218.566l15.488-66.518l16.944,66.167c2.711,10.589-5.294,20.861-16.173,20.861
			C451.158,239.075,443.187,229.068,445.632,218.566z M50.11,239.075c-10.886,0-18.883-10.279-16.174-20.859l16.944-66.168
			l15.488,66.517C68.813,229.062,60.848,239.075,50.11,239.075z"/>
	</g>
</g>
</svg>