<?xml version="1.0" encoding="iso-8859-1"?>
<!-- Uploaded to: SVG Repo, www.svgrepo.com, Generator: SVG Repo Mixer Tools -->
<svg height="800px" width="800px" version="1.1" id="Layer_1" xmlns="http://www.w3.org/2000/svg" xmlns:xlink="http://www.w3.org/1999/xlink" 
	 viewBox="0 0 512.115 512.115" xml:space="preserve">
<g transform="translate(0 -1)">
	<path style="fill:#6CA1E9;" d="M265.223,120.861c10.824-10.824,21.19-22.088,31.079-33.774l55.027-65.033l0,0
		c28.061-28.07,73.566-28.07,101.628,0l38.113,38.104c28.061,28.061,28.061,73.566,0,101.628l0,0l-65.042,55.027
		c-11.686,9.89-22.95,20.255-33.774,31.079L240.539,399.604c-10.824,10.824-21.19,22.088-31.079,33.774l-48.676,58.682l0,0
		c-28.061,28.07-73.566,28.07-101.628,0l-38.104-38.104c-28.07-28.061-28.07-73.566,0-101.628l0,0l58.682-48.676
		c11.686-9.89,22.95-20.255,33.774-31.079L265.223,120.861z"/>
	<g>
		<path style="fill:#E4E5E6;" d="M305.205,264.932c-27.621-1.895-49.646-30.657-48.676-60.344
			c0.961-29.795,21.324-53.985,47.634-53.985c26.31,0,48.82,30.522,48.676,60.344C352.695,242.44,331.352,266.729,305.205,264.932"
			/>
		<path style="fill:#E4E5E6;" d="M257.58,312.556c-1.895-27.621-30.657-49.646-60.344-48.676
			c-29.795,0.961-53.985,21.324-53.985,47.634c0,26.31,30.522,48.82,60.344,48.676C235.088,360.047,259.377,338.704,257.58,312.556"
			/>
		<path style="fill:#E4E5E6;" d="M440.252,123.674L389.438,72.86c-3.503-3.503-3.503-9.198,0-12.701l12.701-12.701
			c3.512-3.512,9.198-3.512,12.71,0l50.805,50.814c3.512,3.503,3.512,9.189,0,12.701l-12.701,12.701
			C449.45,127.186,443.764,127.186,440.252,123.674"/>
		<path style="fill:#E4E5E6;" d="M97.268,466.658l-50.814-50.814c-3.503-3.503-3.503-9.198,0-12.701l12.701-12.701
			c3.512-3.512,9.198-3.512,12.71,0l50.805,50.814c3.512,3.503,3.512,9.189,0,12.701l-12.701,12.701
			C106.466,470.171,100.78,470.171,97.268,466.658"/>
	</g>
</g>
</svg>